<svg width="754" height="229" viewBox="0 0 754 229" fill="none" xmlns="http://www.w3.org/2000/svg">
<path d="M733.89 135.792C679.115 149.259 623.357 153.772 567.805 161.117C476.859 173.142 385.687 192.117 294.406 200.004C229.629 205.602 165.883 200.529 103.107 180.402C86.6681 175.131 70.2795 169.233 54.6542 161.223C42.1139 154.794 10.1714 134.094 3.33019 115.024C-12.4535 71.0281 56.47 45.8972 74.2148 39.2625C153.107 9.765 236.148 9.30231 317.735 19.8717C413.123 32.229 507.531 59.3079 600.286 87.4744C640.686 99.7424 682.499 111.771 721.687 129.223C727.207 131.681 759.218 143.073 751.925 158.574C748.841 165.131 743.455 170.225 737.838 173.726C712.276 189.66 664.846 203.549 639.318 209.117C557.039 227.063 473.08 229.182 389.696 227.554C317.475 226.144 244.562 222.098 172.735 212.508C144.168 208.693 110.689 204.827 85.9691 185.17C63.5514 167.344 59.6587 140.407 78.5217 114.177C123.947 51.009 203.845 22.8773 269.551 10.971C307.288 4.13307 345.597 0.783877 383.774 1.01075C566.839 2.09865 475.566 20.6499 664.441 36.6134" stroke="white" stroke-linecap="round"/>
</svg>
